<svg width="25" height="20" viewBox="0 0 25 20" fill="none" xmlns="http://www.w3.org/2000/svg">
<g clip-path="url(#clip0_729_26067)">
<path d="M22.5 5H17.5V6.25H22.5C23.1891 6.25 23.75 6.81094 23.75 7.5V15C23.75 15.6891 23.1891 16.25 22.5 16.25H20V18.1863L16.5781 16.25H12.5C11.8109 16.25 11.25 15.6891 11.25 15V13.75L10 13.7498V14.9991C10 16.376 11.123 17.4639 12.4648 17.4639L16.25 17.5L20.5039 19.9074C20.5898 19.9727 20.6875 20 20.7812 20C21.0273 20 21.25 19.8086 21.25 19.5312V17.4988H22.5C23.877 17.4988 25 16.3758 25 15.034V7.46484C25 6.12109 23.8789 5 22.5 5ZM16.25 10V2.46484C16.25 1.12305 15.1289 0 13.75 0H2.5C1.12305 0 0 1.12305 0 2.46484V9.96484C0 11.3789 1.12305 12.5 2.5 12.5L3.75 12.5004V14.5312C3.75 14.8086 3.97656 15 4.21875 15C4.31152 15 4.40918 14.9707 4.49707 14.9072L8.75 12.5L13.75 12.4971C15.1289 12.4961 16.25 11.3789 16.25 10ZM8.42188 11.25L5 13.1875V11.25H2.5C1.81094 11.25 1.25 10.6875 1.25 10V2.5C1.25 1.81094 1.81094 1.25 2.5 1.25H13.75C14.4391 1.25 15 1.81094 15 2.5V10C15 10.6891 14.4391 11.25 13.75 11.25H8.42188Z" fill="white"/>
</g>
<defs>
<clipPath id="clip0_729_26067">
<rect width="25" height="20" fill="white"/>
</clipPath>
</defs>
</svg>
