<svg width="18" height="19" viewBox="0 0 18 19" fill="none" xmlns="http://www.w3.org/2000/svg">
<path d="M10.4265 1.80525V3.23681C12.339 3.2475 14.4315 3.21713 16.3446 3.2475C16.412 3.23577 16.4813 3.23993 16.5469 3.25966C16.6125 3.27939 16.6726 3.31415 16.7224 3.36116C16.7722 3.40818 16.8103 3.46616 16.8338 3.5305C16.8573 3.59485 16.8654 3.66377 16.8576 3.73181C16.8879 7.25644 16.8502 10.9824 16.8756 14.5076C16.8643 14.7326 16.8806 15.1365 16.8457 15.3609C16.8013 15.6473 16.6736 15.7024 16.3862 15.7412C16.2253 15.7631 15.9564 15.7603 15.7984 15.7676C14.2279 15.7598 12.6585 15.7614 11.088 15.762H10.4271V17.1947L1.125 15.7609V3.23963L10.4265 1.80469" fill="#283C82"/>
<path d="M10.4268 3.77344H16.333V15.2248H10.4268V13.7933H15.0786V13.0778H10.4268V12.1834H15.0786V11.4673H10.4268V10.5729H15.0786V9.85687H10.4268V8.9625H15.0786V8.24644H10.4268V7.35206H15.0786V6.636H10.4268V5.74163H15.0786V5.02556H10.4268V3.77344Z" fill="white"/>
<path d="M4.8227 6.93806C5.1602 6.91837 5.50277 6.90431 5.84252 6.88631C6.08045 8.094 6.32402 9.3 6.58164 10.5026C6.78358 9.26062 7.00745 8.02256 7.22402 6.78281C7.58149 6.77 7.93873 6.75125 8.29558 6.72656C7.89114 8.46019 7.53677 10.2084 7.0952 11.9319C6.79652 12.0877 6.34933 11.9246 5.99495 11.9499C5.75702 10.7653 5.4797 9.58744 5.26652 8.39831C5.05727 9.55762 4.78502 10.7012 4.54539 11.8498C4.20189 11.8318 3.85708 11.811 3.51095 11.7874C3.21395 10.2124 2.8652 8.64919 2.58789 7.07081C2.89389 7.05675 3.20158 7.04381 3.50758 7.03313C3.69208 8.17275 3.90133 9.30731 4.0622 10.4486C4.3142 9.27862 4.57239 8.10806 4.8227 6.93806" fill="white"/>
</svg>
