<svg width="21" height="16" viewBox="0 0 21 16" fill="none" xmlns="http://www.w3.org/2000/svg">
<path d="M0.5 3C0.5 1.61914 1.61914 0.5 3 0.5H18C19.3789 0.5 20.5 1.61914 20.5 3V13C20.5 14.3789 19.3789 15.5 18 15.5H3C1.61914 15.5 0.5 14.3789 0.5 13V3ZM1.75 3V4.55859L9.39062 10.1602C10.0508 10.6445 10.9492 10.6445 11.6094 10.1602L19.25 4.55859V3C19.25 2.30859 18.6914 1.75 18 1.75H2.96484C2.30977 1.75 1.71484 2.30859 1.71484 3H1.75ZM1.75 6.10938V13C1.75 13.6914 2.30977 14.25 3 14.25H18C18.6914 14.25 19.25 13.6914 19.25 13V6.10938L12.3477 11.168C11.2461 11.9766 9.75391 11.9766 8.65234 11.168L1.75 6.10938Z" fill="white"/>
</svg>
