<svg width="18" height="18" viewBox="0 0 18 18" fill="none" xmlns="http://www.w3.org/2000/svg">
<g clip-path="url(#clip0_848_13771)">
<path d="M6.0791 7.2305C6.57246 7.2804 7.0541 6.99206 7.23896 6.52796L8.16797 4.20501C8.36657 3.69554 8.17529 3.11751 7.71387 2.83128L5.8623 1.67438C5.41465 1.39287 4.84072 1.45694 4.46455 1.83232C2.55264 3.74388 1.5 6.29007 1.5 8.97367C1.5 11.6842 2.55264 14.2295 4.46484 16.1397C4.68457 16.3858 4.97168 16.5 5.26172 16.5C5.4677 16.5 5.67539 16.4433 5.86055 16.3261L7.71328 15.168C8.17646 14.8787 8.36602 14.3011 8.16387 13.7922L7.23926 11.4785C7.05434 11.0098 6.57275 10.7177 6.07852 10.7737L4.99512 10.8809C4.65 9.65658 4.65 8.34701 4.99512 7.1221L6.0791 7.2305ZM4.21787 11.5342C4.2893 11.7411 4.49522 11.8785 4.70859 11.8492L6.1752 11.7036C6.24478 11.6926 6.33627 11.7439 6.36832 11.8226L7.29381 14.1376C7.32768 14.2228 7.29473 14.3235 7.21781 14.372L5.36303 15.531C5.28797 15.5767 5.19182 15.5685 5.12684 15.5026C3.39229 13.7696 2.41113 11.4346 2.41113 8.97367C2.41113 6.51332 3.36592 4.20414 5.10059 2.46976C5.13812 2.43176 5.18666 2.41207 5.23518 2.41207C5.26998 2.41207 5.30476 2.42215 5.33771 2.44228L7.19162 3.60126C7.27037 3.65025 7.30239 3.7505 7.26943 3.83564L6.36914 6.17874C6.33984 6.25061 6.26941 6.29731 6.19251 6.29731C6.18457 6.29886 6.17285 6.29593 6.17285 6.29593L4.70801 6.15238C4.48096 6.13452 4.28877 6.26133 4.21729 6.46732C3.66035 8.10062 3.66035 9.90238 4.21787 11.5342ZM13.2686 2.53128C13.0607 2.37748 12.767 2.41776 12.612 2.62468C12.4564 2.83158 12.4976 3.12537 12.7045 3.28123C14.5195 4.64652 15.5625 6.72953 15.5625 9.00003C15.5625 11.2697 14.5207 13.3536 12.7034 14.7188C12.4965 14.8744 12.4553 15.1682 12.611 15.3753C12.7031 15.4981 12.8437 15.5625 12.9844 15.5625C13.0823 15.5625 13.1812 15.5323 13.2664 15.4682C15.3223 13.9248 16.5 11.5664 16.5 8.97367C16.5 6.43363 15.3223 4.07552 13.2686 2.53128ZM11.2617 4.39486C11.0475 4.24837 10.7563 4.30284 10.6099 4.51571C10.4634 4.72949 10.5174 5.02108 10.7307 5.16756C11.9941 6.03519 12.75 7.46781 12.75 9.00003C12.75 10.5308 11.9947 11.9649 10.7303 12.8321C10.517 12.9785 10.4629 13.2706 10.6094 13.4839C10.6992 13.6172 10.8457 13.6875 10.9951 13.6875C11.0867 13.6875 11.1791 13.661 11.2606 13.6052C12.7793 12.5625 13.6875 10.8399 13.6875 8.97367C13.6875 7.16019 12.7793 5.43753 11.2617 4.39486ZM9.47168 6.70902C9.24097 6.59321 8.95986 6.68201 8.84092 6.91319C8.72282 7.14343 8.81437 7.42588 9.04509 7.54395C9.59473 7.82523 9.9375 8.38187 9.9375 9.00003C9.9375 9.61791 9.59502 10.1766 9.04482 10.4576C8.81411 10.5756 8.72256 10.8577 8.84065 11.0883C8.92383 11.25 9.08789 11.3438 9.25781 11.3438C9.33015 11.3438 9.40248 11.3273 9.47112 11.2925C10.3371 10.8504 10.8747 9.9721 10.8747 8.99974C10.8486 8.02738 10.3389 7.1514 9.47168 6.70902Z" fill="black"/>
</g>
<defs>
<clipPath id="clip0_848_13771">
<rect width="15" height="15" fill="white" transform="translate(1.5 1.5)"/>
</clipPath>
</defs>
</svg>
