<svg width="24" height="20" viewBox="0 0 24 20" fill="none" xmlns="http://www.w3.org/2000/svg">
<path d="M19.3084 16.2751C19.3084 16.5751 19.2417 16.8834 19.1001 17.1834C18.9584 17.4834 18.7751 17.7667 18.5334 18.0334C18.1251 18.4834 17.6751 18.8084 17.1667 19.0167C16.6667 19.2251 16.1251 19.3334 15.5417 19.3334C14.6917 19.3334 13.7834 19.1334 12.8251 18.7251C11.8667 18.3167 10.9084 17.7667 9.95842 17.0751C9.00008 16.3751 8.09175 15.6001 7.22508 14.7417C6.36675 13.8751 5.59175 12.9667 4.90008 12.0167C4.21675 11.0667 3.66675 10.1167 3.26675 9.17508C2.86675 8.22508 2.66675 7.31675 2.66675 6.45008C2.66675 5.88341 2.76675 5.34175 2.96675 4.84175C3.16675 4.33341 3.48341 3.86675 3.92508 3.45008C4.45841 2.92508 5.04175 2.66675 5.65841 2.66675C5.89175 2.66675 6.12508 2.71675 6.33341 2.81675C6.55008 2.91675 6.74175 3.06675 6.89175 3.28341L8.82508 6.00842C8.97508 6.21675 9.08341 6.40841 9.15841 6.59175C9.23341 6.76675 9.27508 6.94175 9.27508 7.10008C9.27508 7.30008 9.21675 7.50008 9.10008 7.69175C8.99175 7.88341 8.83341 8.08341 8.63341 8.28341L8.00008 8.94175C7.90841 9.03341 7.86675 9.14175 7.86675 9.27508C7.86675 9.34175 7.87508 9.40008 7.89175 9.46675C7.91675 9.53341 7.94175 9.58341 7.95842 9.63341C8.10842 9.90841 8.36675 10.2667 8.73341 10.7001C9.10841 11.1334 9.50841 11.5751 9.94175 12.0167C10.3917 12.4584 10.8251 12.8667 11.2667 13.2417C11.7001 13.6084 12.0584 13.8584 12.3417 14.0084C12.3834 14.0251 12.4334 14.0501 12.4917 14.0751C12.5584 14.1001 12.6251 14.1084 12.7001 14.1084C12.8417 14.1084 12.9501 14.0584 13.0417 13.9667L13.6751 13.3417C13.8834 13.1334 14.0834 12.9751 14.2751 12.8751C14.4667 12.7584 14.6584 12.7001 14.8667 12.7001C15.0251 12.7001 15.1917 12.7334 15.3751 12.8084C15.5584 12.8834 15.7501 12.9917 15.9584 13.1334L18.7167 15.0917C18.9334 15.2417 19.0834 15.4167 19.1751 15.6251C19.2584 15.8334 19.3084 16.0417 19.3084 16.2751Z" stroke="white" stroke-width="1.2" stroke-miterlimit="10"/>
<path d="M16.4167 8.50016C16.4167 8.00016 16.025 7.2335 15.4417 6.6085C14.9083 6.0335 14.2 5.5835 13.5 5.5835" stroke="white" stroke-width="1.2" stroke-linecap="round" stroke-linejoin="round"/>
<path d="M19.3333 8.50008C19.3333 5.27508 16.725 2.66675 13.5 2.66675" stroke="white" stroke-width="1.2" stroke-linecap="round" stroke-linejoin="round"/>
</svg>
