<svg width="32" height="32" viewBox="0 0 32 32" fill="none" xmlns="http://www.w3.org/2000/svg">
<g clip-path="url(#clip0_629_17200)">
<path d="M30.2292 8.67673C29.1087 6.50358 27.4746 4.58462 25.5039 3.12725C25.2147 2.91344 24.807 2.97455 24.5931 3.26368C24.3792 3.55281 24.4404 3.96056 24.7295 4.17448C26.5406 5.51377 28.042 7.27698 29.0717 9.27365C30.1505 11.3658 30.6975 13.6288 30.6975 16.0001C30.6975 24.1043 24.1042 30.6976 15.9999 30.6976C7.89573 30.6976 1.30239 24.1043 1.30239 15.9999C1.30239 7.89562 7.89573 1.30239 15.9999 1.30239C16.3595 1.30239 16.6511 1.01076 16.6511 0.651194C16.6511 0.291626 16.3595 0 15.9999 0C7.17757 0 0 7.17757 0 15.9999C0 24.8223 7.17757 31.9999 15.9999 31.9999C24.8223 31.9999 31.9999 24.8223 31.9999 15.9999C31.9999 13.4555 31.3877 10.9232 30.2292 8.67673Z" fill="white"/>
<path d="M11.9058 8.57045C11.7022 8.68625 11.5764 8.90245 11.5764 9.13655V23.4274C11.5764 23.7871 11.868 24.0786 12.2276 24.0786C12.5872 24.0786 12.8788 23.7871 12.8788 23.4274V10.2821L22.5201 16.0216L15.4303 20.5894C15.128 20.7842 15.0408 21.1872 15.2356 21.4895C15.4305 21.7919 15.8334 21.8791 16.1358 21.6842L24.1091 16.547C24.2986 16.4249 24.4115 16.2135 24.4074 15.9881C24.4034 15.7627 24.2832 15.5554 24.0894 15.44L12.5607 8.57696C12.3593 8.45725 12.1094 8.45464 11.9058 8.57045Z" fill="white"/>
</g>
<defs>
<clipPath id="clip0_629_17200">
<rect width="32" height="32" fill="white"/>
</clipPath>
</defs>
</svg>
