<svg width="32" height="32" viewBox="0 0 32 32" fill="none" xmlns="http://www.w3.org/2000/svg">
<path d="M30.2292 8.67673C29.1087 6.50358 27.4746 4.58462 25.5039 3.12725C25.2147 2.91344 24.807 2.97455 24.5931 3.26368C24.3792 3.55281 24.4404 3.96056 24.7295 4.17448C26.5406 5.51377 28.042 7.27698 29.0717 9.27365C30.1505 11.3658 30.6975 13.6288 30.6975 16.0001C30.6975 24.1043 24.1042 30.6976 15.9999 30.6976C7.89573 30.6976 1.30239 24.1043 1.30239 15.9999C1.30239 7.89562 7.89573 1.30239 15.9999 1.30239C16.3595 1.30239 16.6511 1.01076 16.6511 0.651194C16.6511 0.291626 16.3595 0 15.9999 0C7.17757 0 0 7.17757 0 15.9999C0 24.8223 7.17757 31.9999 15.9999 31.9999C24.8223 31.9999 31.9999 24.8223 31.9999 15.9999C31.9999 13.4555 31.3877 10.9232 30.2292 8.67673Z" fill="white"/>
<path d="M11.9056 8.56947C11.702 8.68527 11.5762 8.90147 11.5762 9.13557V23.4265C11.5762 23.7861 11.8678 24.0777 12.2274 24.0777C12.5869 24.0777 12.8786 23.7861 12.8786 23.4265V10.2811L22.5198 16.0206L15.43 20.5885C15.1278 20.7833 15.0405 21.1862 15.2353 21.4885C15.4303 21.7909 15.8331 21.8781 16.1355 21.6832L24.1088 16.5461C24.2983 16.424 24.4112 16.2125 24.4072 15.9871C24.4032 15.7617 24.2829 15.5544 24.0892 15.439L12.5605 8.57598C12.359 8.45627 12.1092 8.45367 11.9056 8.56947Z" fill="white"/>
</svg>
