<svg width="24" height="24" viewBox="0 0 24 24" fill="none" xmlns="http://www.w3.org/2000/svg">
<path d="M4.5 4.5C5.19023 4.5 5.75 5.05977 5.75 5.75C5.75 6.44141 5.19023 7 4.5 7C3.80977 7 3.25 6.44141 3.25 5.75C3.25 5.05977 3.80977 4.5 4.5 4.5ZM21.375 5.125C21.7188 5.125 22 5.40469 22 5.75C22 6.09375 21.7188 6.375 21.375 6.375H8.875C8.53125 6.375 8.25 6.09375 8.25 5.75C8.25 5.40469 8.53125 5.125 8.875 5.125H21.375ZM21.375 11.375C21.7188 11.375 22 11.6562 22 12C22 12.3438 21.7188 12.625 21.375 12.625H8.875C8.53125 12.625 8.25 12.3438 8.25 12C8.25 11.6562 8.53125 11.375 8.875 11.375H21.375ZM21.375 17.625C21.7188 17.625 22 17.9062 22 18.25C22 18.5938 21.7188 18.875 21.375 18.875H8.875C8.53125 18.875 8.25 18.5938 8.25 18.25C8.25 17.9062 8.53125 17.625 8.875 17.625H21.375ZM4.5 13.25C3.80977 13.25 3.25 12.6914 3.25 12C3.25 11.3086 3.80977 10.75 4.5 10.75C5.19023 10.75 5.75 11.3086 5.75 12C5.75 12.6914 5.19023 13.25 4.5 13.25ZM4.5 17C5.19023 17 5.75 17.5586 5.75 18.25C5.75 18.9414 5.19023 19.5 4.5 19.5C3.80977 19.5 3.25 18.9414 3.25 18.25C3.25 17.5586 3.80977 17 4.5 17Z" fill="#4D4D4D"/>
</svg>
