<svg width="24" height="24" viewBox="0 0 24 24" fill="none" xmlns="http://www.w3.org/2000/svg">
<path d="M3.50012 3.875C3.50012 3.52969 3.7798 3.25 4.12512 3.25H5.37512C5.71887 3.25 6.00012 3.52969 6.00012 3.875V9.49844H7.25012C7.59387 9.49844 7.87512 9.77969 7.87512 10.1234C7.87512 10.4711 7.59387 10.7484 7.25012 10.7484H3.50012C3.1548 10.7484 2.87512 10.4711 2.87512 10.1234C2.87512 9.77969 3.1548 9.49844 3.50012 9.49844H4.75012V4.5H4.12512C3.7798 4.5 3.50012 4.21992 3.50012 3.875ZM9.75012 5.74844C9.75012 5.40313 10.0314 5.12344 10.3751 5.12344H21.6251C21.9689 5.12344 22.2501 5.40313 22.2501 5.74844C22.2501 6.09219 21.9689 6.37344 21.6251 6.37344H10.3751C10.0314 6.37344 9.75012 6.09219 9.75012 5.74844ZM9.75012 11.9984C9.75012 11.6547 10.0314 11.3734 10.3751 11.3734H21.6251C21.9689 11.3734 22.2501 11.6547 22.2501 11.9984C22.2501 12.3422 21.9689 12.6234 21.6251 12.6234H10.3751C10.0314 12.6234 9.75012 12.3422 9.75012 11.9984ZM9.75012 18.2484C9.75012 17.9047 10.0314 17.6234 10.3751 17.6234H21.6251C21.9689 17.6234 22.2501 17.9047 22.2501 18.2484C22.2501 18.5922 21.9689 18.8734 21.6251 18.8734H10.3751C10.0314 18.8734 9.75012 18.5922 9.75012 18.2484ZM3.94191 15.2523C3.69816 15.4984 3.30246 15.4984 3.05832 15.2523C2.81418 15.0102 2.81418 14.6117 3.05832 14.3695L3.66027 13.768C4.6048 12.8227 6.15246 12.8734 7.03137 13.8773C7.81262 14.7367 7.78918 16.1078 6.98059 16.975L4.6259 19.4984H7.25012C7.59387 19.4984 7.87512 19.7797 7.87512 20.1234C7.87512 20.4672 7.59387 20.7484 7.25012 20.7484H3.18762C2.93879 20.7484 2.71379 20.6 2.61457 20.3734C2.51535 20.143 2.56105 19.8773 2.73059 19.6977L6.06652 16.1234C6.43762 15.725 6.44934 15.1117 6.08996 14.7016C5.65246 14.2406 4.97668 14.2172 4.54426 14.6508L3.94191 15.2523Z" fill="#4D4D4D"/>
</svg>
