<svg width="24" height="24" viewBox="0 0 24 24" fill="none" xmlns="http://www.w3.org/2000/svg">
<g clip-path="url(#clip0_609_19252)">
<path d="M10.9658 3.56404C11.3443 2.79903 12.4279 2.8236 12.7879 3.56849L13.5264 5.05881L15.1629 5.29482C15.9793 5.42136 16.3318 6.43185 15.7307 7.03377L15.7232 7.04119L14.5395 8.18416L14.8215 9.81697C14.9477 10.6371 14.0979 11.2717 13.3445 10.8931L13.3334 10.8857L11.8824 10.125L10.4055 10.9043C9.65215 11.2828 8.80234 10.6482 8.92852 9.83181L8.93223 9.82068L9.21055 8.16189L8.01934 7.03377C7.41816 6.43185 7.7707 5.42136 8.58711 5.29482L8.59453 5.29408L10.2236 5.05881L10.9658 3.56552V3.56404ZM11.0141 6.145L9.0918 6.42183L10.4871 7.77967L10.1568 9.69451L11.8824 8.78162L13.5932 9.68338L13.2629 7.76482L14.6545 6.42183L12.7359 6.145L11.8416 4.40234L11.0141 6.145ZM7.125 16.6562V20.2187C7.125 21.2021 6.32715 22 5.34375 22H1.78125C0.79748 22 0 21.2021 0 20.2187V16.6562C0 15.6728 0.79748 14.875 1.78125 14.875H5.34375C6.32715 14.875 7.125 15.6728 7.125 16.6562ZM1.1875 20.2187C1.1875 20.5453 1.4532 20.8125 1.78125 20.8125H5.34375C5.67031 20.8125 5.9375 20.5453 5.9375 20.2187V16.6562C5.9375 16.3297 5.67031 16.0625 5.34375 16.0625H1.78125C1.4532 16.0625 1.1875 16.3297 1.1875 16.6562V20.2187ZM15.4375 20.2187C15.4375 21.2021 14.6396 22 13.6562 22H10.0938C9.11035 22 8.3125 21.2021 8.3125 20.2187V14.2812C8.3125 13.2978 9.11035 12.5 10.0938 12.5H13.6562C14.6396 12.5 15.4375 13.2978 15.4375 14.2812V20.2187ZM9.5 20.2187C9.5 20.5453 9.76719 20.8125 10.0938 20.8125H13.6562C13.9828 20.8125 14.25 20.5453 14.25 20.2187V14.2812C14.25 13.9547 13.9828 13.6875 13.6562 13.6875H10.0938C9.76719 13.6875 9.5 13.9547 9.5 14.2812V20.2187ZM21.9688 17.25C22.9521 17.25 23.75 18.0478 23.75 19.0312V20.2187C23.75 21.2021 22.9521 22 21.9688 22H18.4062C17.4229 22 16.625 21.2021 16.625 20.2187V19.0312C16.625 18.0478 17.4229 17.25 18.4062 17.25H21.9688ZM17.8125 20.2187C17.8125 20.5453 18.0797 20.8125 18.4062 20.8125H21.9688C22.2953 20.8125 22.5625 20.5453 22.5625 20.2187V19.0312C22.5625 18.7047 22.2953 18.4375 21.9688 18.4375H18.4062C18.0797 18.4375 17.8125 18.7047 17.8125 19.0312V20.2187Z" fill="#4D4D4D"/>
</g>
<defs>
<clipPath id="clip0_609_19252">
<rect width="23.75" height="19" fill="white" transform="translate(0 3)"/>
</clipPath>
</defs>
</svg>
