<svg width="24" height="24" viewBox="0 0 24 24" fill="none" xmlns="http://www.w3.org/2000/svg">
<g clip-path="url(#clip0_530_26677)">
<path d="M20.2227 5.26965L12.7227 2.14465C12.4932 2.04699 12.2477 2 12.0023 2C11.757 2 11.5117 2.04672 11.2812 2.14437L3.78164 5.26965C3.0832 5.55754 2.625 6.24191 2.625 6.96457C2.625 17.0544 10.0234 21.9997 11.9961 21.9997C13.9219 21.9997 21.375 17.1286 21.375 6.96457C21.375 6.24191 20.918 5.55754 20.2227 5.26965ZM20.1211 7.01145C20.1211 15.8122 13.6289 20.7497 12.0039 20.7497C10.332 20.7146 3.875 15.7575 3.875 6.99973C3.875 6.74582 4.02637 6.52121 4.25586 6.42355L11.7559 3.29855C11.8329 3.26623 11.9164 3.2491 12.0003 3.2491C12.0812 3.2491 12.1626 3.26501 12.2393 3.29855L19.7393 6.42355C20.0977 6.57395 20.1211 6.91379 20.1211 7.01145ZM15.125 9.08176C14.9651 9.08176 14.8052 9.14277 14.6832 9.26488L10.957 12.9919L9.31641 11.3513C9.19531 11.2263 9.03516 11.1677 8.875 11.1677C8.51801 11.1677 8.25 11.4596 8.25 11.7927C8.25 11.9526 8.31102 12.1125 8.43313 12.2345L10.5167 14.3177C10.6406 14.4372 10.8008 14.4997 10.957 14.4997C11.1133 14.4997 11.2769 14.4387 11.3988 14.3166L15.5668 10.1486C15.6875 10.0271 15.75 9.86691 15.75 9.70676C15.75 9.37473 15.4805 9.08176 15.125 9.08176Z" fill="#4D4D4D"/>
</g>
<defs>
<clipPath id="clip0_530_26677">
<rect width="20" height="20" fill="white" transform="translate(2 2)"/>
</clipPath>
</defs>
</svg>
