<svg width="24" height="24" viewBox="0 0 24 24" fill="none" xmlns="http://www.w3.org/2000/svg">
<path d="M12.2461 19.0273L6.8633 21.8867C6.58205 22.0547 6.19923 22.0273 5.90626 21.8203C5.6172 21.6133 5.47267 21.2539 5.49611 20.9023L6.5547 14.8281L2.21525 10.5234C1.96291 10.2773 1.87345 9.90625 1.98439 9.56641C2.09494 9.23047 2.38673 8.98438 2.73791 8.93359L8.72267 8.04688L11.4024 2.52813C11.5625 2.20504 11.8867 2 12.2461 2C12.6055 2 12.9336 2.20508 13.0899 2.52813L15.7695 8.04688L21.7578 8.93359C22.1094 8.98438 22.3985 9.23047 22.5117 9.56641C22.6211 9.90625 22.5313 10.2773 22.2813 10.5234L17.9375 14.8281L18.9649 20.9023C19.0235 21.2539 18.8789 21.6133 18.586 21.8203C18.2969 22.0273 17.8789 22.0547 17.5977 21.8867L12.2461 19.0273ZM9.84767 8.59375C9.66798 8.96484 9.31642 9.22266 8.90626 9.28516L3.53869 10.0781L7.43752 13.9375C7.72267 14.2227 7.85548 14.6328 7.78908 15.0352L6.8672 20.4844L11.6563 17.9258C12.0274 17.7266 12.4688 17.7266 12.836 17.9258L17.625 20.4844L16.707 15.0352C16.6367 14.6328 16.7695 14.2227 17.0586 13.9375L20.957 10.0781L15.586 9.28516C15.1445 9.22266 14.793 8.96484 14.6445 8.59375L12.2461 3.65313L9.84767 8.59375Z" fill="#4D4D4D"/>
</svg>
