<svg width="23" height="20" viewBox="0 0 23 20" fill="none" xmlns="http://www.w3.org/2000/svg">
<g clip-path="url(#clip0_868_16412)">
<path d="M12.5 1.25H2.5C1.80977 1.25 1.25 1.80977 1.25 2.5V17.5C1.25 18.1914 1.80977 18.75 2.5 18.75H11.5703C11.918 19.2109 12.3945 19.6211 12.8789 19.9727C12.7578 19.9883 12.6289 20 12.5 20H2.5C1.11914 20 0 18.8789 0 17.5V2.5C0 1.11914 1.11914 0 2.5 0H12.5C13.8789 0 15 1.11914 15 2.5V7.75781C14.5625 7.88281 14.1445 8.04688 13.75 8.25V2.5C13.75 1.80977 13.1914 1.25 12.5 1.25ZM2.5 5.625C2.5 5.28125 2.77969 5 3.125 5H11.875C12.2188 5 12.5 5.28125 12.5 5.625C12.5 5.96875 12.2188 6.25 11.875 6.25H3.125C2.77969 6.25 2.5 5.96875 2.5 5.625ZM10.625 8.75C10.9688 8.75 11.25 9.03125 11.25 9.375C11.25 9.71875 10.9688 10 10.625 10H3.125C2.77969 10 2.5 9.71875 2.5 9.375C2.5 9.03125 2.77969 8.75 3.125 8.75H10.625ZM8.125 12.5C8.46875 12.5 8.75 12.7812 8.75 13.125C8.75 13.4688 8.46875 13.75 8.125 13.75H3.125C2.77969 13.75 2.5 13.4688 2.5 13.125C2.5 12.7812 2.77969 12.5 3.125 12.5H8.125ZM16.875 11.25C17.3945 11.25 17.8125 11.668 17.8125 12.1875C17.8125 12.707 17.3945 13.125 16.875 13.125C16.3555 13.125 15.9375 12.707 15.9375 12.1875C15.9375 11.668 16.3555 11.25 16.875 11.25ZM16.2148 16.25V15C15.9062 14.9648 15.625 14.7188 15.625 14.375C15.625 14.0312 15.9062 13.75 16.25 13.75H16.8398C17.2188 13.75 17.4648 14.0312 17.4648 14.375L17.5 16.25C17.8438 16.25 18.125 16.5312 18.125 16.875C18.125 17.2188 17.8438 17.5 17.5 17.5H16.25C15.9062 17.5 15.625 17.2188 15.625 16.875C15.625 16.5312 15.9062 16.25 16.2148 16.25ZM16.875 20C13.7695 20 11.25 17.4805 11.25 14.375C11.25 11.2695 13.7695 8.75 16.875 8.75C19.9805 8.75 22.5 11.2695 22.5 14.375C22.5 17.4805 19.9805 20 16.875 20ZM21.25 14.375C21.25 11.957 19.293 10 16.875 10C14.457 10 12.5 11.957 12.5 14.375C12.5 16.793 14.457 18.75 16.875 18.75C19.293 18.75 21.25 16.793 21.25 14.375Z" fill="#4D4D4D"/>
</g>
<defs>
<clipPath id="clip0_868_16412">
<rect width="22.5" height="20" fill="white"/>
</clipPath>
</defs>
</svg>
