<svg width="24" height="24" viewBox="0 0 24 24" fill="none" xmlns="http://www.w3.org/2000/svg">
<g clip-path="url(#clip0_631_28520)">
<path d="M11.5859 16.8086C11.7031 16.9492 11.8516 17 12 17C12.1484 17 12.2966 16.9475 12.4148 16.8419L18.0398 11.8419C18.2974 11.613 18.3218 11.2177 18.0923 10.9599C17.8629 10.7011 17.465 10.6773 17.2099 10.908L12.625 14.9844V2.625C12.625 2.27953 12.3438 2 12 2C11.6562 2 11.375 2.27953 11.375 2.625V14.9844L6.78906 10.9062C6.53516 10.6758 6.13672 10.7031 5.90625 10.9609C5.67812 11.1836 5.70234 11.6133 5.96094 11.8086L11.5859 16.8086ZM19.5 14.5H17.625C17.2798 14.5 17 14.7798 17 15.125C17 15.4702 17.2798 15.75 17.625 15.75H19.5C20.1902 15.75 20.75 16.3098 20.75 17V19.5C20.75 20.1902 20.1902 20.75 19.5 20.75H4.5C3.80977 20.75 3.25 20.1902 3.25 19.5V17C3.25 16.3098 3.80977 15.75 4.5 15.75H6.375C6.71875 15.75 7 15.4688 7 15.125C7 14.7812 6.71875 14.5 6.375 14.5H4.5C3.11914 14.5 2 15.6191 2 17V19.5C2 20.8809 3.11914 22 4.5 22H19.5C20.8809 22 22 20.8809 22 19.5V17C22 15.6211 20.8789 14.5 19.5 14.5ZM19.1875 18.25C19.1875 17.7324 18.7676 17.3125 18.25 17.3125C17.7324 17.3125 17.3125 17.7324 17.3125 18.25C17.3125 18.7676 17.7324 19.1875 18.25 19.1875C18.7676 19.1875 19.1875 18.7695 19.1875 18.25Z" fill="#4D4D4D"/>
</g>
<defs>
<clipPath id="clip0_631_28520">
<rect width="20" height="20" fill="white" transform="translate(2 2)"/>
</clipPath>
</defs>
</svg>
