<svg width="24" height="24" viewBox="0 0 24 24" fill="none" xmlns="http://www.w3.org/2000/svg">
<g clip-path="url(#clip0_530_26658)">
<path d="M10.375 10.75C10.7188 10.75 11 11.0312 11 11.375C11 11.7188 10.7188 12 10.375 12H5.375C5.03125 12 4.75 11.7188 4.75 11.375C4.75 11.0312 5.03125 10.75 5.375 10.75H10.375ZM4.75 15.125C4.75 14.7812 5.03125 14.5 5.375 14.5H19.125C19.4688 14.5 19.75 14.7812 19.75 15.125C19.75 15.4688 19.4688 15.75 19.125 15.75H5.375C5.03125 15.75 4.75 15.4688 4.75 15.125ZM13.5 9.1875C13.5 8.32422 14.1992 7.625 15.0625 7.625H18.1875C19.0508 7.625 19.75 8.32422 19.75 9.1875V11.0625C19.75 11.9258 19.0508 12.625 18.1875 12.625H15.0625C14.1992 12.625 13.5 11.9258 13.5 11.0625V9.1875ZM14.75 9.1875V11.0625C14.75 11.2344 14.8906 11.375 15.0625 11.375H18.1875C18.3594 11.375 18.5 11.2344 18.5 11.0625V9.1875C18.5 9.01562 18.3594 8.875 18.1875 8.875H15.0625C14.8906 8.875 14.75 9.01562 14.75 9.1875ZM1 7C1 5.61914 2.11914 4.5 3.5 4.5H21C22.3789 4.5 23.5 5.61914 23.5 7V17C23.5 18.3789 22.3789 19.5 21 19.5H3.5C2.11914 19.5 1 18.3789 1 17V7ZM2.25 7V17C2.25 17.6914 2.80977 18.25 3.5 18.25H21C21.6914 18.25 22.25 17.6914 22.25 17V7C22.25 6.30859 21.6914 5.75 21 5.75H3.5C2.80977 5.75 2.25 6.30859 2.25 7Z" fill="#4D4D4D"/>
</g>
<defs>
<clipPath id="clip0_530_26658">
<rect width="22.5" height="20" fill="white" transform="translate(1 2)"/>
</clipPath>
</defs>
</svg>
