<svg width="24" height="24" viewBox="0 0 24 24" fill="none" xmlns="http://www.w3.org/2000/svg">
<g clip-path="url(#clip0_609_19227)">
<path d="M16.875 15.125H11.875C11.5312 15.125 11.25 15.4062 11.25 15.75C11.25 16.0938 11.5295 16.375 11.875 16.375H16.875C17.2205 16.375 17.5 16.0955 17.5 15.75C17.5 15.4045 17.2188 15.125 16.875 15.125ZM16.875 11.375H13.125C12.7812 11.375 12.5 11.6562 12.5 12C12.5 12.3438 12.7795 12.625 13.125 12.625H16.875C17.2188 12.625 17.5 12.3438 17.5 12C17.5 11.6562 17.2188 11.375 16.875 11.375ZM8.75 14.8125C8.23242 14.8125 7.8125 15.232 7.8125 15.75C7.8125 16.2676 8.23242 16.6875 8.75 16.6875C9.26797 16.6875 9.6875 16.2676 9.6875 15.75C9.6875 15.2305 9.26953 14.8125 8.75 14.8125ZM17.5 4.5C17.1545 4.5 16.875 4.77953 16.875 5.125C16.875 5.47047 17.1562 5.75 17.5 5.75C18.1891 5.75 18.75 6.31016 18.75 7V19.5C18.75 20.1898 18.1891 20.75 17.5 20.75H7.5C6.81094 20.75 6.25 20.1898 6.25 19.5V7C6.25 6.31016 6.81094 5.75 7.5 5.75C7.84547 5.75 8.125 5.47047 8.125 5.125C8.125 4.77953 7.84531 4.5 7.5 4.5C6.12109 4.5 5 5.62188 5 7V19.5C5 20.8781 6.12109 22 7.5 22H17.5C18.8789 22 20 20.8781 20 19.5V7C20 5.62188 18.8789 4.5 17.5 4.5ZM9.375 7H15.625C15.9688 7 16.25 6.71875 16.25 6.375C16.25 6.03125 15.9688 5.75 15.625 5.75H14.6531C14.8672 5.38086 15 4.95781 15 4.5C15 3.11914 13.8809 2 12.5 2C11.1191 2 10 3.11914 10 4.5C10 4.95781 10.132 5.38086 10.3468 5.75H9.375C9.03125 5.75 8.75 6.03125 8.75 6.375C8.75 6.71875 9.03125 7 9.375 7ZM12.5 3.25C13.1891 3.25 13.75 3.81094 13.75 4.5C13.75 5.18906 13.1891 5.75 12.5 5.75C11.8109 5.75 11.25 5.18906 11.25 4.5C11.25 3.81094 11.8125 3.25 12.5 3.25ZM7.66602 10.9531C7.43164 11.207 7.4475 11.6012 7.70141 11.8355L9.05532 13.0855C9.17578 13.1953 9.32812 13.25 9.48047 13.25C9.64465 13.25 9.80883 13.1853 9.93164 13.0571L12.3273 10.5571C12.5666 10.3081 12.558 9.91258 12.3084 9.67352C12.06 9.43547 11.6647 9.44281 11.4252 9.69305L9.41797 11.75L8.54844 10.918C8.29648 10.6836 7.89922 10.6953 7.66602 10.9531Z" fill="#4D4D4D"/>
</g>
<defs>
<clipPath id="clip0_609_19227">
<rect width="15" height="20" fill="white" transform="translate(5 2)"/>
</clipPath>
</defs>
</svg>
