<svg width="24" height="24" viewBox="0 0 24 24" fill="none" xmlns="http://www.w3.org/2000/svg">
<g clip-path="url(#clip0_609_19232)">
<path d="M16.2499 15.9961C16.796 15.6802 16.9347 14.8227 17.378 14.3793C17.8214 13.9359 18.6788 13.798 18.9948 13.2516C19.3066 12.7129 19.0013 11.9023 19.1657 11.2871C19.3241 10.6914 19.9648 10.1445 19.9648 9.5C19.9648 8.85547 19.2902 8.30781 19.1312 7.71367C18.9668 7.09844 19.2723 6.28789 18.9607 5.74922C18.6448 5.20313 17.7876 5.06484 17.3443 4.62148C16.9009 4.17812 16.7626 3.3207 16.2165 3.00469C15.679 2.69363 14.8646 2.99745 14.2521 2.83379C13.6913 2.67461 13.1445 2 12.4999 2C11.8554 2 11.3085 2.67461 10.7148 2.83359C10.0976 2.99766 9.28508 2.69297 8.74914 3.00391C8.20305 3.31992 8.06477 4.17734 7.62141 4.62031C7.17844 5.06367 6.32063 5.20195 6.00461 5.74805C5.69289 6.28516 5.99836 7.09766 5.83391 7.71094C5.67453 8.30859 4.99996 8.85547 4.99996 9.5C4.99996 10.1445 5.67457 10.6922 5.83355 11.2863C5.99789 11.9016 5.69234 12.7121 6.0039 13.2508C6.32024 13.7969 7.17727 13.9336 7.62024 14.3789C8.0636 14.8223 8.20188 15.6797 8.74836 15.9961C9.28508 16.3067 10.1003 16.0027 10.7124 16.1668C11.3085 16.3242 11.8554 17 12.4999 17C13.1445 17 13.6921 16.3254 14.2866 16.1664C14.9023 16.0039 15.7109 16.3086 16.2499 15.9961ZM12.4648 15.7305C12.1511 15.5741 11.6523 15.1312 11.0007 14.9574C10.348 14.7825 9.71008 14.9066 9.34875 14.8904C9.15528 14.5842 8.94289 13.9665 8.46946 13.4935C7.99641 13.02 7.38157 12.8099 7.07219 12.6138C7.09328 12.2539 7.21477 11.6133 7.04133 10.9648C6.86692 10.3121 6.42532 9.8168 6.26828 9.50078C6.42438 9.1873 6.86711 8.68945 7.04172 8.03594C7.21493 7.3875 7.09367 6.75156 7.10801 6.38477C7.41481 6.19059 8.03106 5.97969 8.50567 5.50508C8.97649 5.03438 9.19133 4.41094 9.38664 4.10742C9.74211 4.09297 10.3866 4.21445 11.0351 4.04102C11.689 3.86621 12.1808 3.42617 12.4991 3.26797C12.8127 3.42391 13.3105 3.8668 13.9636 4.04141C14.6175 4.21605 15.253 4.09199 15.6152 4.10824C15.8042 4.40707 16.0234 5.03441 16.4945 5.50512C16.9644 5.97543 17.5882 6.19301 17.8917 6.3848C17.9056 6.74703 17.7842 7.38637 17.9579 8.03637C18.1324 8.6891 18.5739 9.18402 18.7309 9.50004C18.5756 9.81254 18.1325 10.3118 17.9575 10.9649C17.7854 11.609 17.9051 12.2188 17.8913 12.6161C17.5843 12.8102 16.9678 13.0215 16.4936 13.4957C16.0237 13.9657 15.8065 14.5891 15.6147 14.8922C15.2555 14.9084 14.617 14.7838 13.9631 14.9587C13.3124 15.1328 12.8163 15.5742 12.4648 15.7305ZM15.9023 9.5C15.9023 7.59766 14.3636 6.0625 12.4999 6.0625C10.6363 6.0625 9.06243 7.59766 9.06243 9.5C9.06243 11.3977 10.6011 12.9375 12.4648 12.9375C14.3284 12.9375 15.9023 11.3984 15.9023 9.5ZM12.4999 11.6875C11.2929 11.6875 10.3124 10.707 10.3124 9.5C10.3124 8.29375 11.2937 7.3125 12.4648 7.3125C13.6359 7.3125 14.6523 8.29297 14.6523 9.5C14.6523 10.707 13.707 11.6875 12.4999 11.6875ZM18.9609 16.457C18.8339 16.136 18.4695 15.9805 18.1499 16.1061C17.8295 16.233 17.6722 16.5963 17.799 16.9174L18.7451 19.31L16.8904 19.0537L15.9279 20.7052L14.9545 18.3146C14.8245 17.9942 14.4576 17.8404 14.1404 17.9716C13.8205 18.1016 13.667 18.4661 13.7974 18.7857L14.77 21.1759C14.9687 21.6641 15.414 21.9766 15.9921 22C16.4933 22 16.9445 21.7217 17.1687 21.2738L17.5757 20.4676L18.4159 20.636C18.8894 20.7355 19.3804 20.5616 19.6921 20.1868C20.0028 19.8139 20.0839 19.3016 19.9051 18.8501L18.9609 16.457ZM10.8593 17.9727C10.5414 17.8408 10.1745 17.9959 10.0452 18.3157L9.0718 20.7063L8.1093 19.0547L6.25618 19.3105L7.20032 16.9187C7.32727 16.5976 7.1698 16.2343 6.84938 16.1073C6.52883 15.9805 6.16633 16.1367 6.03938 16.457L5.09328 18.8496C4.91446 19.3012 4.99563 19.8133 5.30629 20.1863C5.61942 20.5623 6.10785 20.7332 6.58012 20.6363L7.42309 20.4673L7.82973 21.2727C8.05496 21.72 8.50434 21.9985 9.05707 21.9985C9.58129 21.9778 10.0329 21.6622 10.2301 21.1763L11.2036 18.7856C11.3359 18.4648 11.1796 18.1016 10.8593 17.9727Z" fill="#4D4D4D"/>
</g>
<defs>
<clipPath id="clip0_609_19232">
<rect width="15" height="20" fill="white" transform="translate(5 2)"/>
</clipPath>
</defs>
</svg>
