<svg width="24" height="24" viewBox="0 0 24 24" fill="none" xmlns="http://www.w3.org/2000/svg">
<path d="M3.875 17C4.22031 17 4.5 16.7188 4.5 16.375C4.5 12.2383 7.86445 8.875 12 8.875C16.1355 8.875 19.5 12.2395 19.5 16.375C19.5 16.7205 19.7795 17 20.125 17C20.4705 17 20.75 16.7205 20.75 16.375C20.75 11.7617 17.1574 7.98047 12.625 7.65625V5.75H13.875C14.2188 5.75 14.5 5.47031 14.5 5.125C14.5 4.77969 14.2188 4.5 13.875 4.5H10.125C9.78125 4.5 9.5 4.77969 9.5 5.125C9.5 5.47031 9.78125 5.75 10.125 5.75H11.375V7.65664C6.80859 7.98047 3.25 11.7617 3.25 16.375C3.25 16.7188 3.52969 17 3.875 17ZM21.375 18.25H2.625C2.27953 18.25 2 18.5312 2 18.875C2 19.2188 2.27953 19.5 2.625 19.5H21.375C21.7205 19.5 22 19.2205 22 18.875C22 18.5295 21.7188 18.25 21.375 18.25Z" fill="#4D4D4D"/>
</svg>
