<svg width="24" height="24" viewBox="0 0 24 24" fill="none" xmlns="http://www.w3.org/2000/svg">
<g clip-path="url(#clip0_631_17608)">
<path d="M14.6915 8.16406C14.247 7.48516 13.1333 7.48789 12.6903 8.16162L9.83214 12.4883L9.19152 11.6055C8.74621 10.9492 7.69933 10.9805 7.25011 11.6055L4.7298 15.0883C4.46429 15.4557 4.42706 15.9367 4.63031 16.3383C4.83331 16.7461 5.24425 17 5.70128 17H18.2989C18.7446 17 19.1505 16.7546 19.3591 16.3602C19.5666 15.9695 19.544 15.4973 19.2999 15.1273L14.6915 8.16406ZM5.7423 15.75L8.17941 12.3367L9.34777 13.9516C9.46886 14.1172 9.67199 14.2344 9.8673 14.2109C10.0724 14.2061 10.2626 14.1023 10.3759 13.9302L13.6505 8.85594L18.211 15.75H5.7423ZM19.465 3.25H4.46496C3.11925 3.25 1.99976 4.36914 1.99976 5.75V18.25C1.99976 19.6309 3.1189 20.75 4.4646 20.75H19.4646C20.8455 20.75 21.9646 19.6309 21.9646 18.25V5.75C21.965 4.36914 20.879 3.25 19.465 3.25ZM20.7501 18.25C20.7501 18.9391 20.1892 19.5 19.5001 19.5H4.50011C3.81105 19.5 3.25011 18.9391 3.25011 18.25V5.75C3.25011 5.06094 3.81105 4.5 4.50011 4.5H19.5001C20.1892 4.5 20.7501 5.06094 20.7501 5.75V18.25ZM7.62511 9.5C8.66027 9.5 9.50011 8.66016 9.50011 7.625C9.50011 6.58984 8.66027 5.75 7.62511 5.75C6.58995 5.75 5.75011 6.58984 5.75011 7.625C5.75011 8.66016 6.58995 9.5 7.62511 9.5ZM7.62511 7C7.96972 7 8.21496 7.28039 8.21496 7.625C8.21496 7.96961 7.96886 8.25 7.62511 8.25C7.28136 8.25 7.00011 7.96875 7.00011 7.625C7.00011 7.28125 7.28136 7 7.62511 7Z" fill="#4D4D4D"/>
</g>
<defs>
<clipPath id="clip0_631_17608">
<rect width="20" height="20" fill="white" transform="translate(2 2)"/>
</clipPath>
</defs>
</svg>
