<svg width="24" height="24" viewBox="0 0 24 24" fill="none" xmlns="http://www.w3.org/2000/svg">
<g clip-path="url(#clip0_530_26667)">
<path d="M13.5 3.25H3.5C2.80977 3.25 2.25 3.80977 2.25 4.5V19.5C2.25 20.1914 2.80977 20.75 3.5 20.75H12.5703C12.918 21.2109 13.3945 21.6211 13.8789 21.9727C13.7578 21.9883 13.6289 22 13.5 22H3.5C2.11914 22 1 20.8789 1 19.5V4.5C1 3.11914 2.11914 2 3.5 2H13.5C14.8789 2 16 3.11914 16 4.5V9.75781C15.5625 9.88281 15.1445 10.0469 14.75 10.25V4.5C14.75 3.80977 14.1914 3.25 13.5 3.25ZM3.5 7.625C3.5 7.28125 3.77969 7 4.125 7H12.875C13.2188 7 13.5 7.28125 13.5 7.625C13.5 7.96875 13.2188 8.25 12.875 8.25H4.125C3.77969 8.25 3.5 7.96875 3.5 7.625ZM11.625 10.75C11.9688 10.75 12.25 11.0312 12.25 11.375C12.25 11.7188 11.9688 12 11.625 12H4.125C3.77969 12 3.5 11.7188 3.5 11.375C3.5 11.0312 3.77969 10.75 4.125 10.75H11.625ZM9.125 14.5C9.46875 14.5 9.75 14.7812 9.75 15.125C9.75 15.4688 9.46875 15.75 9.125 15.75H4.125C3.77969 15.75 3.5 15.4688 3.5 15.125C3.5 14.7812 3.77969 14.5 4.125 14.5H9.125ZM19.6211 14.6836C19.8633 14.4375 20.2617 14.4375 20.5039 14.6836C20.75 14.9258 20.75 15.3242 20.5039 15.5664L17.6914 18.3789C17.4492 18.625 17.0508 18.625 16.8086 18.3789L15.2461 16.8164C15 16.5742 15 16.1758 15.2461 15.9336C15.4883 15.6875 15.8867 15.6875 16.1289 15.9336L17.25 17.0547L19.6211 14.6836ZM12.25 16.375C12.25 13.2695 14.7695 10.75 17.875 10.75C20.9805 10.75 23.5 13.2695 23.5 16.375C23.5 19.4805 20.9805 22 17.875 22C14.7695 22 12.25 19.4805 12.25 16.375ZM17.875 20.75C20.293 20.75 22.25 18.793 22.25 16.375C22.25 13.957 20.293 12 17.875 12C15.457 12 13.5 13.957 13.5 16.375C13.5 18.793 15.457 20.75 17.875 20.75Z" fill="#4D4D4D"/>
</g>
<defs>
<clipPath id="clip0_530_26667">
<rect width="22.5" height="20" fill="white" transform="translate(1 2)"/>
</clipPath>
</defs>
</svg>
