<svg width="21" height="20" viewBox="0 0 21 20" fill="none" xmlns="http://www.w3.org/2000/svg">
<g clip-path="url(#clip0_729_26078)">
<path d="M7.96492 8.74999C7.96492 8.06171 7.40359 7.49843 6.71492 7.49843H5.46453C4.0825 7.49843 2.96453 8.6164 2.96453 9.96328L2.99851 12.4844C2.99851 13.8664 4.11687 14.9844 5.4989 14.9844H6.7489C7.43757 14.9844 7.9989 14.4227 7.9989 13.7344L7.96492 8.74999ZM6.71492 13.7344H5.46492C4.77625 13.7344 4.21492 13.1727 4.21492 12.4844V9.99999C4.21492 9.31171 4.77664 8.74999 5.46492 8.74999L6.7157 8.74999L6.71492 13.7344ZM15.4649 14.9844C16.8469 14.9844 17.9653 13.8664 17.9653 12.4844L17.9654 9.99882C17.9654 8.61679 16.8474 7.53398 15.4654 7.53398H14.2506C13.5619 7.53398 13.0006 8.09726 13.0006 8.78554L13.0002 13.7699C13.0002 14.4582 13.5619 15.0199 14.2502 15.0199H15.4649V14.9844ZM14.2149 8.74999L15.4298 8.75C16.1184 8.75 16.6798 9.31172 16.6798 10V12.4844C16.6798 13.1727 16.118 13.7344 15.4298 13.7344H14.1798L14.2149 8.74999ZM11.4454 0.0441739C5.44929 -0.514029 0.656325 4.26683 0.500075 10.0012L0.49927 10.6231C0.498282 10.9687 0.779567 11.25 1.12507 11.25C1.46707 11.25 1.74851 10.9702 1.75007 10.6281L1.75335 9.99999C1.88757 5.02343 6.06648 0.805853 11.3165 1.28749C15.8594 1.70468 19.2501 5.67421 19.2501 10.2367V16.8422C19.2501 17.8777 18.4106 18.7172 17.3751 18.7172H14.1325C14.2919 18.2922 14.3125 17.7977 14.0434 17.284C13.6882 16.6062 12.948 16.2172 12.1832 16.2172L9.94539 16.25C9.03875 16.25 8.2075 16.8629 8.0364 17.7535C7.80476 18.9531 8.71882 20 9.83992 20L17.3048 20C19.0309 20 20.4302 18.6008 20.4302 16.9102V10.2695C20.5001 5.06249 16.629 0.526947 11.4454 0.0441739ZM12.3399 18.75H9.83992C9.4932 18.75 9.21492 18.4717 9.21492 18.125C9.21492 17.7783 9.49328 17.5 9.83992 17.5H12.3403C12.687 17.5 12.9653 17.7783 12.9653 18.125C12.9653 18.4717 12.7227 18.75 12.3399 18.75Z" fill="white"/>
</g>
<defs>
<clipPath id="clip0_729_26078">
<rect width="20" height="20" fill="white" transform="translate(0.5)"/>
</clipPath>
</defs>
</svg>
